<?xml version="1.0" encoding="UTF-8"?>
<svg width="21px" height="25px" viewBox="0 0 21 25" version="1.1" xmlns="http://www.w3.org/2000/svg" xmlns:xlink="http://www.w3.org/1999/xlink">
    <!-- Generator: Sketch 50.2 (55047) - http://www.bohemiancoding.com/sketch -->
    <title>avatar</title>
    <desc>Created with Sketch.</desc>
    <defs></defs>
    <g id="Login-page" stroke="none" stroke-width="1" fill="none" fill-rule="evenodd">
        <g id="Login" transform="translate(-545.000000, -435.000000)" fill="#D6DBDC">
            <g id="Login-form" transform="translate(525.000000, 417.000000)">
                <g id="Username">
                    <g id="avatar" transform="translate(20.000000, 18.000000)">
                        <path d="M10.4080292,13.2948905 L10.489781,13.2948905 L10.520438,13.2948905 L10.5715328,13.2948905 C12.0686131,13.2693431 13.279562,12.7430657 14.1737226,11.7364964 C16.1408759,9.5189781 15.8138686,5.71751825 15.7781022,5.35474453 C15.650365,2.63138686 14.3627737,1.32846715 13.3,0.720437956 C12.5080292,0.265693431 11.5832117,0.0204379562 10.5510949,0 L10.5153285,0 L10.4948905,0 L10.4642336,0 C9.89708029,0 8.78321168,0.0919708029 7.71532847,0.7 C6.64233577,1.3080292 5.33430657,2.61094891 5.20656934,5.35474453 C5.17080292,5.71751825 4.84379562,9.5189781 6.81094891,11.7364964 C7.7,12.7430657 8.91094891,13.2693431 10.4080292,13.2948905 L10.4080292,13.2948905 Z M6.57080292,5.48248175 C6.57080292,5.46715328 6.57591241,5.45182482 6.57591241,5.44160584 C6.74452555,1.77810219 9.34525547,1.38467153 10.4591241,1.38467153 L10.479562,1.38467153 L10.520438,1.38467153 C11.9,1.41532847 14.2452555,1.97737226 14.4036496,5.44160584 C14.4036496,5.45693431 14.4036496,5.47226277 14.4087591,5.48248175 C14.4138686,5.51824818 14.7715328,8.99270073 13.1467153,10.8218978 C12.5029197,11.5474453 11.6445255,11.9051095 10.5153285,11.9153285 L10.489781,11.9153285 L10.489781,11.9153285 L10.4642336,11.9153285 C9.34014599,11.9051095 8.47664234,11.5474453 7.8379562,10.8218978 C6.21824818,9.00291971 6.56569343,5.51313869 6.57080292,5.48248175 L6.57080292,5.48248175 Z" id="Shape"></path>
                        <path d="M20.989781,19.6 L20.989781,19.5846715 C20.989781,19.5437956 20.9846715,19.5029197 20.9846715,19.4569343 C20.9540146,18.4452555 20.8875912,16.079562 18.670073,15.3233577 C18.6547445,15.3182482 18.6343066,15.3131387 18.6189781,15.3080292 C16.3145985,14.720438 14.3985401,13.3919708 14.3781022,13.3766423 C14.0664234,13.1569343 13.6372263,13.2335766 13.4175182,13.5452555 C13.1978102,13.8569343 13.2744526,14.2861314 13.5861314,14.5058394 C13.6729927,14.5671533 15.7065693,15.9824818 18.2510949,16.6364964 C19.4416058,17.0605839 19.5744526,18.3328467 19.610219,19.4978102 C19.610219,19.5437956 19.610219,19.5846715 19.6153285,19.6255474 C19.620438,20.0854015 19.589781,20.7956204 19.5080292,21.2043796 C18.680292,21.6744526 15.4357664,23.2992701 10.5,23.2992701 C5.58467153,23.2992701 2.31970803,21.6693431 1.48686131,21.1992701 C1.40510949,20.7905109 1.36934307,20.080292 1.37956204,19.620438 C1.37956204,19.579562 1.38467153,19.5386861 1.38467153,19.4927007 C1.42043796,18.3277372 1.55328467,17.0554745 2.74379562,16.6313869 C5.28832117,15.9773723 7.32189781,14.5569343 7.40875912,14.5007299 C7.72043796,14.2810219 7.79708029,13.8518248 7.57737226,13.540146 C7.35766423,13.2284672 6.92846715,13.1518248 6.61678832,13.3715328 C6.59635036,13.3868613 4.69051095,14.7153285 2.37591241,15.3029197 C2.35547445,15.3080292 2.34014599,15.3131387 2.32481752,15.3182482 C0.10729927,16.079562 0.0408759124,18.4452555 0.0102189781,19.4518248 C0.0102189781,19.4978102 0.0102189781,19.5386861 0.00510948905,19.579562 L0.00510948905,19.5948905 C1.7590096e-14,19.8605839 -0.00510948905,21.2248175 0.265693431,21.9094891 C0.316788321,22.0423358 0.408759124,22.1547445 0.531386861,22.2313869 C0.684671533,22.3335766 4.35839416,24.6737226 10.5051095,24.6737226 C16.6518248,24.6737226 20.3255474,22.3284672 20.4788321,22.2313869 C20.5963504,22.1547445 20.6934307,22.0423358 20.7445255,21.9094891 C21,21.229927 20.9948905,19.8656934 20.989781,19.6 L20.989781,19.6 Z" id="Shape"></path>
                    </g>
                </g>
            </g>
        </g>
    </g>
</svg>