<svg xmlns="http://www.w3.org/2000/svg" width="95" height="80" viewBox="0 0 95 80">
    <g fill="#9B9B9B" fill-rule="nonzero">
        <path d="M34.27 31.12c-3.13 0-5.676 2.541-5.676 5.665s2.546 5.665 5.676 5.665c3.13 0 5.677-2.541 5.677-5.665S37.4 31.12 34.27 31.12zm0 8.552a2.893 2.893 0 0 1-2.893-2.887 2.893 2.893 0 0 1 5.786 0 2.894 2.894 0 0 1-2.893 2.887zM49.07 31.12c-3.13 0-5.677 2.541-5.677 5.665s2.546 5.665 5.676 5.665c3.13 0 5.677-2.541 5.677-5.665s-2.547-5.665-5.677-5.665zm0 8.552a2.893 2.893 0 0 1-2.894-2.887 2.894 2.894 0 0 1 5.786 0 2.893 2.893 0 0 1-2.893 2.887zM63.868 31.12c-3.13 0-5.676 2.541-5.676 5.665s2.546 5.665 5.676 5.665c3.13 0 5.677-2.541 5.677-5.665s-2.547-5.665-5.677-5.665zm0 8.552a2.893 2.893 0 0 1-2.893-2.887 2.893 2.893 0 0 1 5.786 0 2.893 2.893 0 0 1-2.893 2.887zM34.27 44.94c-3.13 0-5.676 2.54-5.676 5.664 0 3.124 2.546 5.666 5.676 5.666 3.13 0 5.677-2.542 5.677-5.666 0-3.123-2.547-5.665-5.677-5.665zm0 8.552a2.893 2.893 0 0 1-2.893-2.888 2.893 2.893 0 0 1 5.786 0 2.893 2.893 0 0 1-2.893 2.888zM63.868 44.94c-3.13 0-5.676 2.54-5.676 5.664 0 3.124 2.546 5.666 5.676 5.666 3.13 0 5.677-2.542 5.677-5.666 0-3.123-2.547-5.665-5.677-5.665zm0 8.552a2.893 2.893 0 0 1-2.893-2.888 2.893 2.893 0 0 1 5.786 0 2.894 2.894 0 0 1-2.893 2.888zM49.07 44.94c-3.13 0-5.677 2.54-5.677 5.664 0 3.124 2.546 5.666 5.676 5.666 3.13 0 5.677-2.542 5.677-5.666 0-3.123-2.547-5.665-5.677-5.665zm0 8.552a2.893 2.893 0 0 1-2.894-2.888 2.894 2.894 0 0 1 5.786 0 2.893 2.893 0 0 1-2.893 2.888zM49.07 58.759c-3.13 0-5.677 2.541-5.677 5.665s2.546 5.665 5.676 5.665c3.13 0 5.677-2.541 5.677-5.665s-2.547-5.665-5.677-5.665zm0 8.552a2.893 2.893 0 0 1-2.894-2.887 2.894 2.894 0 0 1 5.786 0 2.893 2.893 0 0 1-2.893 2.887zM34.27 58.759c-3.13 0-5.676 2.541-5.676 5.665s2.546 5.665 5.676 5.665c3.13 0 5.677-2.541 5.677-5.665S37.4 58.76 34.27 58.76zm0 8.552a2.893 2.893 0 0 1-2.893-2.887 2.894 2.894 0 0 1 5.786 0 2.894 2.894 0 0 1-2.893 2.887zM21.44 36.785l2.045-2.042a1.387 1.387 0 0 0 0-1.964 1.394 1.394 0 0 0-1.968 0l-2.046 2.042-2.045-2.042a1.394 1.394 0 0 0-1.968 0 1.387 1.387 0 0 0 0 1.964l2.045 2.042-2.045 2.042a1.387 1.387 0 0 0 .983 2.371c.356 0 .713-.136.984-.407l2.046-2.042 2.046 2.042c.272.271.628.407.984.407a1.389 1.389 0 0 0 .984-2.371l-2.045-2.042zM21.44 50.605l2.045-2.042a1.387 1.387 0 0 0 0-1.964 1.394 1.394 0 0 0-1.968 0l-2.046 2.041-2.045-2.041a1.394 1.394 0 0 0-1.968 0 1.387 1.387 0 0 0 0 1.964l2.045 2.042-2.045 2.041a1.387 1.387 0 0 0 .983 2.371c.356 0 .713-.135.984-.406l2.046-2.042 2.046 2.042c.272.27.628.406.984.406a1.389 1.389 0 0 0 .984-2.37l-2.045-2.042zM23.485 66.465l-2.045-2.041 2.045-2.042a1.388 1.388 0 0 0 0-1.964 1.394 1.394 0 0 0-1.968 0l-2.046 2.041-2.046-2.041a1.394 1.394 0 0 0-1.968 0 1.387 1.387 0 0 0 0 1.964l2.046 2.042-2.046 2.041a1.387 1.387 0 0 0 .984 2.371c.356 0 .712-.135.984-.406l2.046-2.042 2.046 2.042c.271.27.628.406.984.406a1.39 1.39 0 0 0 .984-2.37z"/>
        <path d="M94.92 70.598l-3.795-19.935a1.393 1.393 0 0 0-2.735.52l3.795 19.933c.213 1.116-.731 2.17-2.017 2.17H69.574l13.358-13.332c.244-.244.407-.6.407-.982V24.654L87.156 44.7a1.392 1.392 0 0 0 2.734-.519L83.33 9.726a3.874 3.874 0 0 0-3.866-3.69H67.268V1.572A1.39 1.39 0 0 0 65.876.18a1.39 1.39 0 0 0-1.391 1.39v4.466h-9.32V1.57A1.39 1.39 0 0 0 53.773.18a1.39 1.39 0 0 0-1.392 1.39v4.466h-9.32V1.57A1.39 1.39 0 0 0 41.67.18a1.39 1.39 0 0 0-1.392 1.39v4.466h-9.32V1.57A1.39 1.39 0 0 0 29.566.18a1.39 1.39 0 0 0-1.391 1.39v4.466h-9.32V1.57A1.39 1.39 0 0 0 17.463.18a1.39 1.39 0 0 0-1.391 1.39v4.466H3.876A3.876 3.876 0 0 0 0 9.905V75.95a3.876 3.876 0 0 0 3.876 3.868h34.546a1.39 1.39 0 1 0 0-2.778H3.876a1.092 1.092 0 0 1-1.093-1.09V24.07h77.773v33.512h-15.62a3.876 3.876 0 0 0-3.876 3.868v15.59H44.917a1.39 1.39 0 1 0 0 2.778h17.535a1.4 1.4 0 0 0 .984-.407l3.355-3.348h23.377c3.023 0 5.293-2.626 4.752-5.465zM2.783 21.293V9.905c0-.601.49-1.09 1.093-1.09h12.196v6.239a1.39 1.39 0 0 0 1.391 1.389 1.39 1.39 0 0 0 1.392-1.39V8.816h9.32v6.239a1.39 1.39 0 0 0 1.391 1.389 1.39 1.39 0 0 0 1.392-1.39V8.816h9.32v6.239a1.39 1.39 0 0 0 1.392 1.389 1.39 1.39 0 0 0 1.391-1.39V8.816h9.32v6.239a1.39 1.39 0 0 0 1.392 1.389 1.39 1.39 0 0 0 1.392-1.39V8.816h9.32v6.239a1.39 1.39 0 0 0 1.391 1.389 1.39 1.39 0 0 0 1.392-1.39V8.816h12.196c.602 0 1.092.489 1.092 1.09v11.388H2.783zm61.06 53.783V61.45c0-.601.49-1.09 1.092-1.09h13.653L63.844 75.076z"/>
    </g>
</svg>
