<svg xmlns="http://www.w3.org/2000/svg" width="80" height="80" viewBox="0 0 80 80">
    <g fill="none" fill-rule="nonzero">
        <path fill="#FFF" stroke="#9B9B9B" d="M45.161 64.516H34.84v-4.522a20.38 20.38 0 0 1-5.32-2.212l-3.204 3.203-7.3-7.3 3.203-3.204a20.38 20.38 0 0 1-2.212-5.32h-4.522V34.84h4.522a20.38 20.38 0 0 1 2.212-5.32l-3.203-3.204 7.3-7.3 3.204 3.203a20.38 20.38 0 0 1 5.32-2.212v-4.522H45.16v4.522a20.38 20.38 0 0 1 5.32 2.212l3.204-3.203 7.3 7.3-3.203 3.204a20.38 20.38 0 0 1 2.212 5.32h4.522V45.16h-4.522a20.38 20.38 0 0 1-2.212 5.32l3.203 3.204-7.3 7.3-3.204-3.203a20.38 20.38 0 0 1-5.32 2.212v4.522z"/>
        <g fill="#9B9B9B">
            <path d="M33.548 45.471v.98h-1.29v2.581h1.29v3.871h12.904v-3.87h1.29v-2.581h-1.29v-.981a10.337 10.337 0 0 0 3.87-8.052c0-5.691-4.63-10.322-10.322-10.322-5.692 0-10.323 4.63-10.323 10.322 0 3.137 1.435 6.097 3.871 8.052zm10.323 4.852h-7.742v-1.29h7.742v1.29zM38.71 37.419a1.29 1.29 0 1 1 2.581.001 1.29 1.29 0 0 1-2.581 0zM40 29.677c4.27 0 7.742 3.473 7.742 7.742a7.761 7.761 0 0 1-3.319 6.35l-.552.385v2.298h-2.58v-5.4c1.497-.533 2.58-1.953 2.58-3.633A3.876 3.876 0 0 0 40 33.55a3.876 3.876 0 0 0-3.871 3.87c0 1.68 1.083 3.1 2.58 3.634v5.399h-2.58v-2.298l-.552-.385a7.761 7.761 0 0 1-3.319-6.35c0-4.27 3.472-7.742 7.742-7.742zM49.032 0H22.316a10.664 10.664 0 0 0-8.023 3.64 10.577 10.577 0 0 0-2.608 7.783 10.562 10.562 0 0 0 2.968 6.64h-3.04v2.58h7.46l1.532-6.138-2.502-.625-.784 3.135-.26-.224a8.024 8.024 0 0 1-2.8-5.554 8.032 8.032 0 0 1 1.976-5.899 8.085 8.085 0 0 1 6.081-2.757h26.716V0zM13.881 61.897l3.136.784-.225.26a8.024 8.024 0 0 1-5.553 2.8 8.063 8.063 0 0 1-5.9-1.976 8.082 8.082 0 0 1-2.758-6.081V30.968H0v26.716c0 3.073 1.326 5.997 3.64 8.023a10.579 10.579 0 0 0 7.783 2.61 10.562 10.562 0 0 0 6.64-2.969v3.04h2.58v-7.46l-6.138-1.533-.624 2.502zM59.394 65.494l2.501.625.785-3.136.26.225a8.024 8.024 0 0 1 2.8 5.553 8.032 8.032 0 0 1-1.976 5.9 8.077 8.077 0 0 1-6.08 2.758H30.968V80h26.716c3.073 0 5.997-1.326 8.023-3.64a10.577 10.577 0 0 0 2.608-7.783 10.562 10.562 0 0 0-2.968-6.64h3.04v-2.58h-7.46l-1.533 6.137zM76.36 14.293a10.576 10.576 0 0 0-7.783-2.608 10.562 10.562 0 0 0-6.64 2.968v-3.04h-2.58v7.46l6.138 1.532.625-2.502-3.135-.784.224-.26a8.024 8.024 0 0 1 5.554-2.8 8.056 8.056 0 0 1 5.899 1.976 8.085 8.085 0 0 1 2.757 6.081v26.716H80V22.316c0-3.073-1.326-5.999-3.64-8.023z"/>
        </g>
    </g>
</svg>
