<?xml version="1.0" encoding="UTF-8"?>
<svg width="21px" height="21px" viewBox="0 0 21 21" version="1.1" xmlns="http://www.w3.org/2000/svg" xmlns:xlink="http://www.w3.org/1999/xlink">
    <!-- Generator: Sketch 50.2 (55047) - http://www.bohemiancoding.com/sketch -->
    <title>keyhole</title>
    <desc>Created with Sketch.</desc>
    <defs></defs>
    <g id="Login-page" stroke="none" stroke-width="1" fill="none" fill-rule="evenodd">
        <g id="Login" transform="translate(-545.000000, -523.000000)" fill="#D6DBDC">
            <g id="Login-form" transform="translate(525.000000, 417.000000)">
                <g id="Password" transform="translate(0.000000, 86.000000)">
                    <g id="keyhole" transform="translate(20.000000, 20.000000)">
                        <path d="M11.9838194,15.7773535 L8.99734839,15.7773535 C8.62070323,15.7773535 8.26255161,15.6203217 8.01475161,15.346586 C7.78713871,15.0950541 7.68220645,14.7773121 7.71932903,14.451879 C7.82304194,13.5435955 8.37784839,11.3763153 8.63242258,10.4092452 C7.90561935,9.86177389 7.47173226,9.01983439 7.47173226,8.10673567 C7.47173226,6.49615605 8.82596129,5.18579618 10.4905161,5.18579618 C12.1551387,5.18579618 13.5094355,6.49615605 13.5094355,8.10673567 C13.5094355,9.01983439 13.0755484,9.86190764 12.3486097,10.4093121 C12.6033194,11.3763822 13.1581258,13.5434618 13.2618387,14.4517452 C13.2988935,14.7775796 13.1938935,15.0953217 12.9662806,15.3467197 C12.7186161,15.6204554 12.3604645,15.7773535 11.9838194,15.7773535 L11.9838194,15.7773535 Z M9.08730968,14.4397739 L11.8940613,14.4397739 C11.7150871,13.2455828 10.9216258,10.3101306 10.9132258,10.2791656 C10.8303774,9.97346178 10.9759548,9.65230892 11.2618935,9.50952229 C11.8126355,9.23464968 12.1547323,8.69707643 12.1547323,8.10666879 C12.1547323,7.23356369 11.4082161,6.52330892 10.4906516,6.52330892 C9.57315484,6.52330892 8.82670645,7.23356369 8.82670645,8.10666879 C8.82670645,8.69694268 9.16880323,9.23451592 9.71947742,9.50958917 C10.0054839,9.6523758 10.1509258,9.97352866 10.0680774,10.2790987 C10.0596774,10.3101306 9.26628387,13.2455159 9.08730968,14.4397739 L9.08730968,14.4397739 Z" id="Shape"></path>
                        <path d="M17.9812839,20.9816083 L2.99995161,20.9816083 C1.36703226,20.9816083 0.0384774194,19.6519873 0.0384774194,18.0176656 L0.0384774194,2.96380892 C0.0384774194,1.32955414 1.36703226,0 2.99995161,0 L17.9812161,0 C19.6142032,0 20.9428258,1.32955414 20.9428258,2.96380892 L20.9428258,18.0175987 C20.9428258,19.6519873 19.614271,20.9816083 17.9812839,20.9816083 L17.9812839,20.9816083 Z M2.99995161,1.33757962 C2.11409032,1.33757962 1.39331613,2.06709554 1.39331613,2.96380892 L1.39331613,18.0175987 C1.39331613,18.914379 2.11409032,19.6439618 2.99995161,19.6439618 L17.9812161,19.6439618 C18.8671452,19.6439618 19.5879871,18.914379 19.5879871,18.0175987 L19.5879871,2.96380892 C19.5879871,2.06709554 18.8671452,1.33757962 17.9812161,1.33757962 L2.99995161,1.33757962 L2.99995161,1.33757962 Z" id="Shape"></path>
                    </g>
                </g>
            </g>
        </g>
    </g>
</svg>