<?xml version="1.0" encoding="UTF-8"?>
<svg width="24px" height="17px" viewBox="0 0 24 17" version="1.1" xmlns="http://www.w3.org/2000/svg" xmlns:xlink="http://www.w3.org/1999/xlink">
    <!-- Generator: Sketch 50 (54983) - http://www.bohemiancoding.com/sketch -->
    <title>mail (1)</title>
    <desc>Created with Sketch.</desc>
    <defs></defs>
    <g id="Page-1" stroke="none" stroke-width="1" fill="none" fill-rule="evenodd">
        <g id="Index-Copy" transform="translate(-1045.000000, -584.000000)" fill="#9B9B9B" fill-rule="nonzero">
            <g id="Group-3" transform="translate(704.000000, 312.000000)">
                <g id="Group-2" transform="translate(0.000000, 258.000000)">
                    <g id="mail-(1)" transform="translate(341.000000, 14.000000)">
                        <g id="Group" transform="translate(3.750000, 8.130435)">
                            <path d="M15.08175,4.81173913 C14.9895,4.81173913 14.89725,4.77847826 14.82525,4.71121739 L10.50975,0.721391304 C10.359,0.582434783 10.3515,0.348130435 10.49325,0.199565217 C10.635,0.0495217391 10.87125,0.0428695652 11.0235,0.183304348 L15.339,4.17313043 C15.48975,4.31208696 15.49725,4.5463913 15.3555,4.69495652 C15.28125,4.77256522 15.18225,4.81173913 15.08175,4.81173913 Z" id="Shape"></path>
                            <path d="M0.6765,4.81173913 C0.57675,4.81173913 0.477,4.77256522 0.40275,4.69495652 C0.261,4.5463913 0.2685,4.31208696 0.41925,4.17313043 L4.73625,0.183304348 C4.88775,0.0443478261 5.1255,0.0502608696 5.2665,0.199565217 C5.40825,0.348130435 5.40075,0.582434783 5.25,0.721391304 L0.933,4.71121739 C0.861,4.77847826 0.76875,4.81173913 0.6765,4.81173913 Z" id="Shape"></path>
                        </g>
                        <path d="M21.384,16.6518696 L1.875,16.6518696 C0.8415,16.6518696 0,15.8233043 0,14.8040435 L0,2.20408696 C0,1.18482609 0.8415,0.35626087 1.875,0.35626087 L21.384,0.35626087 C22.4175,0.35626087 23.259,1.18482609 23.259,2.20408696 L23.259,14.8040435 C23.259,15.8233043 22.4175,16.6518696 21.384,16.6518696 Z M1.875,1.0953913 C1.25475,1.0953913 0.75,1.59282609 0.75,2.20408696 L0.75,14.8040435 C0.75,15.4153043 1.25475,15.9127391 1.875,15.9127391 L21.384,15.9127391 C22.00425,15.9127391 22.509,15.4153043 22.509,14.8040435 L22.509,2.20408696 C22.509,1.59282609 22.00425,1.0953913 21.384,1.0953913 L1.875,1.0953913 Z" id="Shape"></path>
                        <path d="M11.6295,10.3611304 C11.13075,10.3611304 10.632,10.1977826 10.2525,9.87182609 L0.6225,1.59282609 C0.4665,1.45904348 0.45,1.22547826 0.58575,1.071 C0.723,0.91726087 0.95925,0.903217391 1.11525,1.03552174 L10.74525,9.31378261 C11.2245,9.72547826 12.0345,9.72547826 12.513,9.31378261 L22.131,1.04882609 C22.28625,0.915043478 22.5225,0.929826087 22.6605,1.08430435 C22.79625,1.23878261 22.7805,1.4716087 22.6245,1.60613043 L13.0065,9.87108696 C12.62625,10.1977826 12.12825,10.3611304 11.6295,10.3611304 Z" id="Shape"></path>
                    </g>
                </g>
            </g>
        </g>
    </g>
</svg>