<?xml version="1.0" encoding="UTF-8"?>
<svg width="155px" height="30px" viewBox="0 0 155 30" version="1.1" xmlns="http://www.w3.org/2000/svg" xmlns:xlink="http://www.w3.org/1999/xlink">
    <!-- Generator: Sketch 50 (54983) - http://www.bohemiancoding.com/sketch -->
    <title>Logo</title>
    <desc>Created with Sketch.</desc>
    <defs></defs>
    <g id="Page-1" stroke="none" stroke-width="1" fill="none" fill-rule="evenodd">
        <g id="Landing" transform="translate(-25.000000, -25.000000)">
            <g id="Logo" transform="translate(25.000000, 25.000000)">
                <path d="M50.525,24.25 C48.7416578,24.25 47.1333405,23.8625039 45.7,23.0875 C44.2666595,22.3124961 43.1416708,21.2375069 42.325,19.8625 C41.5083293,18.4874931 41.1,16.9500085 41.1,15.25 C41.1,13.5499915 41.5083293,12.0125069 42.325,10.6375 C43.1416708,9.26249312 44.2666595,8.18750387 45.7,7.4125 C47.1333405,6.63749612 48.7416578,6.25 50.525,6.25 C52.3083422,6.25 53.9166595,6.63749612 55.35,7.4125 C56.7833405,8.18750387 57.9083293,9.2583265 58.725,10.625 C59.5416708,11.9916735 59.95,13.5333247 59.95,15.25 C59.95,16.9666752 59.5416708,18.5083265 58.725,19.875 C57.9083293,21.2416735 56.7833405,22.3124961 55.35,23.0875 C53.9166595,23.8625039 52.3083422,24.25 50.525,24.25 Z M50.525,21.4 C51.6916725,21.4 52.741662,21.1375026 53.675,20.6125 C54.608338,20.0874974 55.341664,19.3541714 55.875,18.4125 C56.408336,17.4708286 56.675,16.4166725 56.675,15.25 C56.675,14.0833275 56.408336,13.0291714 55.875,12.0875 C55.341664,11.1458286 54.608338,10.4125026 53.675,9.8875 C52.741662,9.36249738 51.6916725,9.1 50.525,9.1 C49.3583275,9.1 48.308338,9.36249738 47.375,9.8875 C46.441662,10.4125026 45.708336,11.1458286 45.175,12.0875 C44.641664,13.0291714 44.375,14.0833275 44.375,15.25 C44.375,16.4166725 44.641664,17.4708286 45.175,18.4125 C45.708336,19.3541714 46.441662,20.0874974 47.375,20.6125 C48.308338,21.1375026 49.3583275,21.4 50.525,21.4 Z M78.95,6.5 L78.95,24 L76.275,24 L66.625,12.15 L66.625,24 L63.4,24 L63.4,6.5 L66.075,6.5 L75.725,18.35 L75.725,6.5 L78.95,6.5 Z M82.675,15.75 L89.55,15.75 L89.55,18.35 L82.675,18.35 L82.675,15.75 Z M93.275,6.5 L96.525,6.5 L96.525,24 L93.275,24 L93.275,6.5 Z M116.8,6.5 L116.8,24 L114.125,24 L104.475,12.15 L104.475,24 L101.25,24 L101.25,6.5 L103.925,6.5 L113.575,18.35 L113.575,6.5 L116.8,6.5 Z M124.75,9.225 L124.75,14.55 L133.2,14.55 L133.2,17.3 L124.75,17.3 L124.75,24 L121.5,24 L121.5,6.5 L134.275,6.5 L134.275,9.225 L124.75,9.225 Z M145.4,24.25 C143.616658,24.25 142.00834,23.8625039 140.575,23.0875 C139.14166,22.3124961 138.016671,21.2375069 137.2,19.8625 C136.383329,18.4874931 135.975,16.9500085 135.975,15.25 C135.975,13.5499915 136.383329,12.0125069 137.2,10.6375 C138.016671,9.26249312 139.14166,8.18750387 140.575,7.4125 C142.00834,6.63749612 143.616658,6.25 145.4,6.25 C147.183342,6.25 148.791659,6.63749612 150.225,7.4125 C151.658341,8.18750387 152.783329,9.2583265 153.6,10.625 C154.416671,11.9916735 154.825,13.5333247 154.825,15.25 C154.825,16.9666752 154.416671,18.5083265 153.6,19.875 C152.783329,21.2416735 151.658341,22.3124961 150.225,23.0875 C148.791659,23.8625039 147.183342,24.25 145.4,24.25 Z M145.4,21.4 C146.566673,21.4 147.616662,21.1375026 148.55,20.6125 C149.483338,20.0874974 150.216664,19.3541714 150.75,18.4125 C151.283336,17.4708286 151.55,16.4166725 151.55,15.25 C151.55,14.0833275 151.283336,13.0291714 150.75,12.0875 C150.216664,11.1458286 149.483338,10.4125026 148.55,9.8875 C147.616662,9.36249738 146.566673,9.1 145.4,9.1 C144.233328,9.1 143.183338,9.36249738 142.25,9.8875 C141.316662,10.4125026 140.583336,11.1458286 140.05,12.0875 C139.516664,13.0291714 139.25,14.0833275 139.25,15.25 C139.25,16.4166725 139.516664,17.4708286 140.05,18.4125 C140.583336,19.3541714 141.316662,20.0874974 142.25,20.6125 C143.183338,21.1375026 144.233328,21.4 145.4,21.4 Z" id="ON-INFO" fill="#3B3F48"></path>
                <path d="M0,12.3344216 C0,21.8908203 7.7232514,29.6322441 17.2572173,29.6322441 L17.2572173,27.1505436 C9.09052558,27.1505436 2.47587485,20.520329 2.47587485,12.3344216 L0,12.3344216 Z" id="Shape" fill="#9B9B9B" fill-rule="nonzero"></path>
                <path d="M17.2572173,2.48170044 C11.7881206,2.48170044 7.3906712,6.88949674 7.3906712,12.3344216 C7.3906712,17.8163867 11.7881206,22.224183 17.2572173,22.224183 L17.2572173,24.7058835 C10.4577997,24.7058835 4.9517497,19.186878 4.9517497,12.3714619 C4.91479635,5.51900546 10.4577997,0 17.2572173,0 L17.2572173,2.48170044 Z" id="Shape" fill="#B1B1B2" fill-rule="nonzero"></path>
                <path d="M22.1720136,12.3344216 C22.1720136,9.63047932 19.9548122,7.40806101 17.2572173,7.40806101 C14.5226689,7.40806101 12.3424209,9.63047932 12.3424209,12.3344216 C12.3424209,15.0383639 14.5596223,17.2607822 17.2572173,17.2607822 L17.2572173,19.7424826 C13.1923481,19.7424826 9.86654605,16.4088551 9.86654605,12.3344216 C9.86654605,8.25998803 13.1923481,4.92636057 17.2572173,4.92636057 C21.3220864,4.92636057 24.6478885,8.25998803 24.6478885,12.3344216 L22.1720136,12.3344216 Z" id="Shape" fill="#CECDCE" fill-rule="nonzero"></path>
                <rect id="Rectangle" fill="#459369" x="20.0704225" y="15.1764706" width="4.92957746" height="14.8235294"></rect>
            </g>
        </g>
    </g>
</svg>