<svg xmlns="http://www.w3.org/2000/svg" width="300" height="288" viewBox="0 0 300 288">
    <g fill="none" fill-rule="nonzero">
        <ellipse cx="149.902" cy="156.729" fill="#F0F0F0" rx="55.462" ry="55.457"/>
        <g fill="#9B9B9B">
            <path d="M118.97 80.022a51.753 51.753 0 0 1 5.722-3.272v9.397h50.42V76.75a52.218 52.218 0 0 1 5.723 3.272c6.151 4.073 14.42 3.196 19.7-2.082a15.748 15.748 0 0 0 4.542-12.962c-.53-4.744-3.141-8.924-7.165-11.45-6.463-4.078-16.245-8.651-29.374-11.056 4.043-4.472 6.574-10.335 6.574-16.824 0-13.9-11.309-25.207-25.21-25.207-13.9 0-25.21 11.308-25.21 25.207 0 6.489 2.531 12.352 6.57 16.824-13.13 2.405-22.91 6.978-29.375 11.056-4.023 2.531-6.63 6.706-7.165 11.45a15.775 15.775 0 0 0 4.543 12.962c5.28 5.273 13.553 6.145 19.705 2.082zm15.806-54.374c0-8.338 6.787-15.124 15.126-15.124 8.34 0 15.126 6.786 15.126 15.124 0 8.34-6.786 15.125-15.126 15.125s-15.126-6.786-15.126-15.125zm-30.025 40.449c.106-.988.58-2.828 2.516-4.048 8.103-5.103 22.079-11.193 42.635-11.193 20.557 0 34.533 6.09 42.636 11.198 1.936 1.22 2.41 3.055 2.516 4.048a5.728 5.728 0 0 1-1.65 4.714c-1.895 1.89-4.845 2.228-7.008.801-4.497-2.974-9.443-5.379-14.712-7.159l-6.656-2.253v13.86h-30.252v-13.86l-6.655 2.248c-5.27 1.78-10.215 4.185-14.713 7.16-2.168 1.436-5.117 1.088-7.008-.802a5.728 5.728 0 0 1-1.649-4.714zM59.307 180.536c6.646-3.383 10.044-10.991 8.083-18.095a51.394 51.394 0 0 1-1.352-6.453l8.935 2.904 15.585-47.95-8.935-2.9a53.233 53.233 0 0 1 4.881-4.436c5.768-4.583 7.487-12.73 4.1-19.375a15.76 15.76 0 0 0-10.917-8.323c-4.684-.953-9.459.227-13.114 3.272-5.874 4.885-13.245 12.765-19.583 24.507-3.116-5.415-7.987-9.493-13.977-11.44-13.205-4.285-27.469 2.965-31.764 16.184C-.834 114.84-.3 121.665 2.76 127.665c3.056 5.994 8.269 10.446 14.672 12.528a25.307 25.307 0 0 0 7.82 1.245c3.49 0 6.948-.776 10.2-2.223-1.754 13.194-.428 23.887 1.448 31.278 1.17 4.608 4.336 8.384 8.687 10.355a15.814 15.814 0 0 0 6.534 1.417c2.466 0 4.921-.58 7.185-1.73zM20.55 130.604a14.995 14.995 0 0 1-8.798-7.517 15.01 15.01 0 0 1-.908-11.54c2.073-6.383 8.022-10.451 14.395-10.451 1.548 0 3.116.242 4.664.74 7.926 2.572 12.283 11.117 9.711 19.048 0 0 0 .005-.005.005 0 .005 0 .01-.005.015-2.571 7.925-11.112 12.281-19.054 9.7zm26.128 37.408c-2.36-9.281-3.832-24.451 2.526-44.008 6.353-19.55 16.462-30.955 23.824-37.075a5.328 5.328 0 0 1 3.469-1.266 5.719 5.719 0 0 1 5.123 3.146c1.214 2.39.63 5.294-1.397 6.907a63.478 63.478 0 0 0-11.36 11.787l-4.19 5.632 13.18 4.285-9.348 28.767-13.18-4.28.08 7.023c.066 5.566.828 11.016 2.265 16.204.695 2.5-.54 5.192-2.935 6.413a5.72 5.72 0 0 1-4.981.11c-.908-.403-2.511-1.421-3.076-3.645zM129.84 236.966a51.843 51.843 0 0 1-6.565-.716l5.526-7.608-40.784-29.629-5.531 7.603a52.32 52.32 0 0 1-2.703-6.015c-2.587-6.892-9.792-11.071-17.163-9.886-4.78.75-8.9 3.604-11.29 7.809-2.359 4.15-2.702 9.065-.942 13.476 2.829 7.094 8.047 16.547 17.259 26.206-6.116 1.29-11.496 4.659-15.197 9.75-3.958 5.446-5.561 12.105-4.507 18.76 1.053 6.655 4.633 12.493 10.079 16.451 4.35 3.166 9.484 4.825 14.768 4.825 1.326 0 2.657-.106 3.998-.318 6.65-1.054 12.494-4.633 16.457-10.078 3.812-5.248 5.209-11.48 4.568-17.469 12.04 5.773 22.639 7.814 30.262 8.319.343.02.691.035 1.034.035 4.366 0 8.511-1.825 11.496-5.097a15.76 15.76 0 0 0 3.938-13.154c-1.165-7.365-7.352-12.941-14.703-13.264zm-44.748 34.701a15.066 15.066 0 0 1-9.877 6.05 15.088 15.088 0 0 1-11.254-2.702 15.065 15.065 0 0 1-6.05-9.872 15.02 15.02 0 0 1 2.702-11.252 15.067 15.067 0 0 1 9.873-6.05 16.086 16.086 0 0 1 2.4-.187 15 15 0 0 1 8.858 2.894c6.742 4.895 8.244 14.374 3.348 21.12zm48.07-15.08c-.67.732-2.046 1.942-4.421 1.79-9.555-.625-24.439-3.907-41.072-15.991C71.03 230.29 63.31 217.153 59.76 208.264v-.005c-.847-2.122-.146-3.887.343-4.749a5.704 5.704 0 0 1 4.094-2.838c.308-.046.61-.07.913-.07 2.314 0 4.432 1.386 5.233 3.533 1.881 5.032 4.473 9.892 7.69 14.44l4.063 5.732 8.148-11.213 24.474 17.782-8.138 11.207 6.696 2.092c5.3 1.66 10.72 2.622 16.114 2.859 2.592.111 4.775 2.123 5.199 4.764a5.719 5.719 0 0 1-1.427 4.79zM232.153 238.206c9.211-9.664 14.43-19.112 17.259-26.2 1.764-4.417 1.416-9.333-.943-13.482a15.767 15.767 0 0 0-11.29-7.81c-7.36-1.18-14.58 2.995-17.162 9.887a51.553 51.553 0 0 1-2.703 6.015l-5.531-7.603-40.785 29.63 5.526 7.607a52.809 52.809 0 0 1-6.56.716c-7.35.323-13.542 5.899-14.712 13.264-.756 4.78.68 9.574 3.938 13.149 2.985 3.267 7.13 5.097 11.496 5.097.342 0 .69-.015 1.033-.035 7.624-.5 18.227-2.546 30.262-8.319-.64 5.99.757 12.22 4.568 17.469h.005c3.958 5.445 9.797 9.024 16.453 10.078 1.34.212 2.672.318 3.998.318 5.284 0 10.412-1.659 14.768-4.825 5.445-3.958 9.025-9.796 10.079-16.45 1.054-6.656-.545-13.315-4.508-18.76-3.695-5.082-9.075-8.455-15.191-9.746zm-61.09 20.172c-2.404.14-3.756-1.064-4.421-1.79a5.721 5.721 0 0 1-1.432-4.775c.423-2.646 2.612-4.658 5.203-4.769a63.47 63.47 0 0 0 16.11-2.858l6.695-2.093-8.138-11.207 24.474-17.782 8.148 11.213 4.064-5.733c3.222-4.547 5.809-9.407 7.69-14.439.907-2.425 3.478-3.856 6.145-3.468a5.712 5.712 0 0 1 4.095 2.838c.494.862 1.19 2.627.342 4.754-3.55 8.889-11.268 22.022-27.907 34.117-16.629 12.084-31.513 15.366-41.067 15.992zm70.836 6.765a15.065 15.065 0 0 1-6.05 9.872 15.077 15.077 0 0 1-11.254 2.702 15.066 15.066 0 0 1-9.878-6.05c-4.9-6.75-3.398-16.224 3.353-21.124 3.263-2.37 7.25-3.312 11.254-2.702a15.067 15.067 0 0 1 9.872 6.05 15.02 15.02 0 0 1 2.703 11.252zM298.551 108.436c-4.296-13.224-18.565-20.474-31.765-16.188-5.99 1.946-10.86 6.024-13.976 11.439-6.343-11.742-13.714-19.622-19.583-24.507-3.66-3.045-8.43-4.23-13.115-3.272a15.76 15.76 0 0 0-10.916 8.323c-3.388 6.64-1.663 14.792 4.095 19.375a51.937 51.937 0 0 1 4.885 4.437l-8.934 2.899 15.585 47.95 8.934-2.904a49.737 49.737 0 0 1-1.351 6.458c-1.967 7.099 1.432 14.707 8.077 18.085a15.845 15.845 0 0 0 7.19 1.739c2.219 0 4.442-.474 6.535-1.417a15.54 15.54 0 0 0 8.687-10.355h.005c1.876-7.391 3.202-18.084 1.442-31.278 3.257 1.452 6.71 2.223 10.2 2.223 2.627 0 5.259-.413 7.82-1.245 6.409-2.082 11.617-6.534 14.672-12.528 3.06-6.005 3.6-12.836 1.513-19.234zm-45.423 59.576c-.56 2.219-2.169 3.242-3.071 3.65a5.682 5.682 0 0 1-4.987-.115c-2.39-1.215-3.625-3.908-2.929-6.408 1.437-5.193 2.203-10.643 2.264-16.209l.08-7.023-13.18 4.28-9.347-28.767 13.18-4.285-4.19-5.632a63.342 63.342 0 0 0-11.365-11.787c-2.022-1.613-2.612-4.517-1.392-6.907a5.732 5.732 0 0 1 3.968-3.03c.974-.206 2.874-.312 4.629 1.15 7.361 6.125 17.47 17.53 23.824 37.08 6.342 19.557 4.87 34.722 2.516 44.003zm34.926-44.925a14.995 14.995 0 0 1-8.799 7.517c-7.936 2.581-16.492-1.785-19.064-9.71-2.581-7.93 1.78-16.486 9.711-19.057a15.02 15.02 0 0 1 4.664-.741c6.378 0 12.323 4.073 14.395 10.456a14.976 14.976 0 0 1-.907 11.535z"/>
        </g>
    </g>
</svg>
