<svg xmlns="http://www.w3.org/2000/svg" width="29" height="20" viewBox="0 0 29 20">
    <path fill="#459369" fill-rule="nonzero" d="M21.755 5.817H2.04L6.186 1.25A.71.71 0 0 0 6.127.236a.74.74 0 0 0-1.032.058L.426 5.436a1.629 1.629 0 0 0 0 2.198l4.669 5.142c.144.16.345.24.546.24.173 0 .347-.06.486-.182a.71.71 0 0 0 .059-1.014L2.041 7.254h19.714c3.157 0 5.726 2.524 5.726 5.627 0 3.103-2.569 5.628-5.726 5.628h-3.481a.725.725 0 0 0-.731.719c0 .396.327.718.73.718h3.482c3.964 0 7.189-3.17 7.189-7.065 0-3.895-3.225-7.064-7.19-7.064z"/>
</svg>
