<svg xmlns="http://www.w3.org/2000/svg" width="25" height="25" viewBox="0 0 25 25">
    <g fill="#459369" fill-rule="nonzero">
        <path d="M8.181 20.051a.665.665 0 0 0-.94.938l.752.75H4.94a3.595 3.595 0 0 1-3.595-3.586v-2.224a.665.665 0 0 0-1.328 0v2.224a4.92 4.92 0 0 0 4.923 4.911h3.053l-.752.75a.662.662 0 0 0 .47 1.132.676.676 0 0 0 .47-.193l1.886-1.882a.662.662 0 0 0 0-.938L8.181 20.05zM11.632.001H.731a.665.665 0 0 0-.664.663V11.54c0 .364.299.662.664.662h10.901a.665.665 0 0 0 .664-.662V.664A.661.661 0 0 0 11.632 0zM10.97 10.88H1.394V1.326h9.575v9.553zM20.056 1.883h-3.053l.752-.75a.665.665 0 0 0-.94-.938l-1.88 1.881a.662.662 0 0 0 0 .939l1.885 1.882a.667.667 0 0 0 .94 0 .662.662 0 0 0 0-.939l-.752-.75h3.054a3.595 3.595 0 0 1 3.595 3.587v2.224a.665.665 0 0 0 1.327 0V6.795c0-2.71-2.212-4.912-4.928-4.912zM24.27 23.622a.67.67 0 0 0-.47.193.668.668 0 0 0 0 .938.67.67 0 0 0 .94 0 .668.668 0 0 0 0-.938.691.691 0 0 0-.47-.193zM21.544 23.622a.665.665 0 0 0-.664.662.665.665 0 0 0 1.328 0 .665.665 0 0 0-.664-.662zM16.09 23.622a.665.665 0 0 0-.663.662.665.665 0 0 0 1.327 0 .661.661 0 0 0-.664-.662zM18.817 23.622a.665.665 0 0 0-.664.662.665.665 0 0 0 1.328 0 .665.665 0 0 0-.664-.662zM13.37 23.622a.67.67 0 0 0-.471.193.668.668 0 0 0 0 .938.67.67 0 0 0 .94 0 .668.668 0 0 0 0-.938.68.68 0 0 0-.47-.193zM13.37 20.9a.665.665 0 0 0-.665.663.665.665 0 0 0 1.328 0 .665.665 0 0 0-.664-.662zM13.37 18.18a.665.665 0 0 0-.665.662.665.665 0 0 0 1.328 0 .665.665 0 0 0-.664-.662zM13.37 15.46a.665.665 0 0 0-.665.662.665.665 0 0 0 1.328 0 .665.665 0 0 0-.664-.663zM13.37 12.744a.67.67 0 0 0-.471.193.668.668 0 0 0 0 .939.67.67 0 0 0 .94 0 .668.668 0 0 0 0-.939.667.667 0 0 0-.47-.193zM21.544 12.744a.665.665 0 0 0-.664.662.665.665 0 0 0 1.328 0 .665.665 0 0 0-.664-.662zM18.817 12.744a.665.665 0 0 0-.664.662.665.665 0 0 0 1.328 0 .665.665 0 0 0-.664-.662zM16.09 12.744a.665.665 0 0 0-.663.662.665.665 0 0 0 1.327 0 .661.661 0 0 0-.664-.662zM24.27 12.744a.67.67 0 0 0-.47.193.668.668 0 0 0 0 .939.67.67 0 0 0 .94 0 .668.668 0 0 0 0-.939.691.691 0 0 0-.47-.193zM24.27 15.46a.665.665 0 0 0-.663.662.665.665 0 0 0 1.327 0 .665.665 0 0 0-.663-.663zM24.27 20.9a.665.665 0 0 0-.663.663.665.665 0 0 0 1.327 0 .665.665 0 0 0-.663-.662zM24.27 18.18a.665.665 0 0 0-.663.662.665.665 0 0 0 1.327 0 .665.665 0 0 0-.663-.662z"/>
    </g>
</svg>
