<?xml version="1.0" encoding="UTF-8"?>
<svg width="32px" height="19px" viewBox="0 0 32 19" version="1.1" xmlns="http://www.w3.org/2000/svg" xmlns:xlink="http://www.w3.org/1999/xlink">
    <!-- Generator: Sketch 50 (54983) - http://www.bohemiancoding.com/sketch -->
    <title>vk</title>
    <desc>Created with Sketch.</desc>
    <defs></defs>
    <g id="Page-1" stroke="none" stroke-width="1" fill="none" fill-rule="evenodd">
        <g id="Index-Copy" transform="translate(-1279.000000, -31.000000)" fill="#9B9B9B">
            <g id="Socials" transform="translate(1244.000000, 30.000000)">
                <g id="vk" transform="translate(35.000000, 1.000000)">
                    <path d="M31.2584494,1.28655527 C31.4808406,0.544942969 31.2584496,0 30.2000122,0 L26.7000122,0 C25.8100775,0 25.3998048,0.470750876 25.1772903,0.989848628 C25.1772903,0.989848628 23.3974207,5.32823432 20.8760006,8.14629935 C20.060258,8.96204202 19.6894209,9.2215909 19.2444536,9.2215909 C19.0220007,9.2215909 18.6882598,8.96204202 18.6882598,8.22049144 L18.6882598,1.28655527 C18.6882598,0.396620508 18.4416863,0 17.7000122,0 L12.2000122,0 C11.6438802,0 11.3094179,0.413039057 11.3094179,0.804491844 C11.3094179,1.64813371 12.5700663,1.84268735 12.7000122,4.21584672 L12.7000122,9.36997508 C12.7000122,10.5 12.4959359,10.7048772 12.0509685,10.7048772 C10.8644506,10.7048772 7.97824233,6.34711025 6.26645423,1.36068564 C5.930985,0.391497427 5.59451454,0 4.70001221,0 L1.20001221,0 C0.200012207,0 0,0.470750876 0,0.989848628 C0,1.91687944 1.18657969,6.514814 5.52490365,12.5959115 C8.41709905,16.7488169 12.4920124,19 16.2000122,19 C18.4247874,19 18.7000122,18.5 18.7000122,17.6387517 L18.7000122,14.5 C18.7000122,13.5 18.9107743,13.3004277 19.6152906,13.3004277 C20.1343883,13.3004277 21.0243231,13.5599766 23.1008375,15.5622989 C25.4739352,17.9353966 25.8651718,19 27.2000122,19 L30.7000122,19 C31.7000122,19 32.2000122,18.5 31.91157,17.513278 C31.5959277,16.5298527 30.4629017,15.1030336 28.9594822,13.4116541 C28.1436778,12.447589 26.9200638,11.4093935 26.5492267,10.8901723 C26.030129,10.2228138 26.1784515,9.92610716 26.5492267,9.33287904 C26.5492267,9.33287904 30.8134821,3.32591196 31.2584494,1.28655527 Z" id="Shape"></path>
                </g>
            </g>
        </g>
    </g>
</svg>