<?xml version="1.0" encoding="UTF-8"?>
<svg width="29px" height="20px" viewBox="0 0 29 20" version="1.1" xmlns="http://www.w3.org/2000/svg" xmlns:xlink="http://www.w3.org/1999/xlink">
    <!-- Generator: Sketch 50 (54983) - http://www.bohemiancoding.com/sketch -->
    <title>youtube</title>
    <desc>Created with Sketch.</desc>
    <defs></defs>
    <g id="Page-1" stroke="none" stroke-width="1" fill="none" fill-rule="evenodd">
        <g id="Index-Copy" transform="translate(-1381.000000, -30.000000)">
            <g id="Socials" transform="translate(1244.000000, 30.000000)">
                <g id="youtube" transform="translate(137.000000, 0.000000)">
                    <g id="Shape">
                        <path d="M28.09375,3.12272727 C27.7675,1.89545455 26.8023438,0.927272727 25.574375,0.595454545 C23.3540625,0 14.445625,0 14.445625,0 C14.445625,0 5.54171875,0 3.316875,0.595454545 C2.0934375,0.922727273 1.12828125,1.89090909 0.7975,3.12272727 C0.20390625,5.35 0.20390625,10 0.20390625,10 C0.20390625,10 0.20390625,14.65 0.7975,16.8772727 C1.12375,18.1045455 2.08890625,19.0727273 3.316875,19.4045455 C5.54171875,20 14.445625,20 14.445625,20 C14.445625,20 23.3540625,20 25.574375,19.4045455 C26.7978125,19.0772727 27.7629688,18.1090909 28.09375,16.8772727 C28.6873438,14.65 28.6873438,10 28.6873438,10 C28.6873438,10 28.6873438,5.35 28.09375,3.12272727 Z" fill="#9B9B9B" fill-rule="nonzero"></path>
                        <polygon fill="#E8E6E2" fill-rule="nonzero" points="11.6 14.2863636 18.9995312 10 11.6 5.71363636"></polygon>
                    </g>
                </g>
            </g>
        </g>
    </g>
</svg>